<svg width="40" height="39" viewBox="0 0 40 39" fill="none" xmlns="http://www.w3.org/2000/svg">
<path d="M13.6 19.5L13.6 13C13.6 9.41015 16.5101 6.5 20.1 6.5V6.5C23.6898 6.5 26.6 9.41015 26.6 13L26.6 19.5" stroke="#222222" stroke-linecap="round"/>
<path d="M6.79432 18.2928C6.9394 16.5519 7.01194 15.6815 7.58602 15.1532C8.16011 14.625 9.03357 14.625 10.7805 14.625H29.4194C31.1664 14.625 32.0398 14.625 32.6139 15.1532C33.188 15.6815 33.2606 16.5519 33.4056 18.2928L34.5445 31.9589C34.6289 32.9724 34.6712 33.4792 34.3741 33.8021C34.077 34.125 33.5684 34.125 32.5514 34.125H7.64857C6.63152 34.125 6.123 34.125 5.82589 33.8021C5.52879 33.4792 5.57102 32.9724 5.65548 31.9589L6.79432 18.2928Z" stroke="#222222"/>
</svg>
